<svg width="200" height="200" viewBox="0 0 200 200" fill="none" xmlns="http://www.w3.org/2000/svg">
  <defs>
    <linearGradient id="lm-gradient" x1="0" y1="0" x2="1" y2="1">
      <stop offset="0%" stop-color="#34A4FF"/>
      <stop offset="50%" stop-color="#6D6BFF"/>
      <stop offset="100%" stop-color="#A855FF"/>
    </linearGradient>
  </defs>
  <g transform="translate(-15,0) rotate(-8 100 100)">
    <path fill="url(#lm-gradient)" d="M159.8 103.9c1.6 21.2-10.8 37.7-28.2 47.7-18.2 10.4-41.8 16.2-60.9 7.4-19.1-8.8-33.8-31.2-33.2-52.9.6-21.4 17.4-41.4 36.7-52.5 18.2-10.4 39.6-14 56.5-5.2 16.9 8.9 27.5 33.9 29.1 55.5Z"/>
  </g>
  <g transform="translate(35,0) rotate(10 100 100)">
    <path fill="url(#lm-gradient)" d="M159.8 103.9c1.6 21.2-10.8 37.7-28.2 47.7-18.2 10.4-41.8 16.2-60.9 7.4-19.1-8.8-33.8-31.2-33.2-52.9.6-21.4 17.4-41.4 36.7-52.5 18.2-10.4 39.6-14 56.5-5.2 16.9 8.9 27.5 33.9 29.1 55.5Z"/>
  </g>
</svg>
